<?xml version="1.0" encoding="UTF-8"?><svg id="Layer_1" xmlns="http://www.w3.org/2000/svg" viewBox="0 0 183.86 273.37"><defs><style>.cls-1{fill:#fff1e8;}.cls-1,.cls-2,.cls-3,.cls-4,.cls-5,.cls-6,.cls-7,.cls-8,.cls-9,.cls-10,.cls-11,.cls-12,.cls-13,.cls-14,.cls-15,.cls-16{stroke-width:0px;}.cls-2{fill:#fff5ef;}.cls-3{fill:#ffede1;}.cls-4{fill:#fffdfb;}.cls-5{fill:#fd7b27;}.cls-6{fill:#fffcfa;}.cls-7{fill:#fd761e;}.cls-8{fill:#fd8537;}.cls-9{fill:#fd8b41;}.cls-10{fill:#fd7d2a;}.cls-11{fill:#fd8131;}.cls-12{fill:#fff9f6;}.cls-13{fill:#fff3eb;}.cls-14{fill:#fd7319;}.cls-15{fill:#fff0e6;}.cls-16{fill:#fd7f2c;}</style></defs><path class="cls-7" d="m160.26,99.24c-10.2,42.4-17.78,85.04-31.24,126.2-3.81,11.52-7.78,22.98-11.92,34.38-1.11,3.14-2.58,6.14-4.39,8.93-4.15,6.33-12.01,6.19-15.17-.63-3.7-7.96-6.4-16.36-9.52-24.58-2.18-5.75-3.8-11.76-6.55-17.21-14.15-28-22.37-58.29-34.13-87.19-4.55-11.18-10.23-21.95-15.93-32.61-7.55-14.12-14.69-28.4-18.4-44.03-2.2-9.2-8.6-16.37-11.03-25.5C-.17,28.94-1.55,21.2,3.18,13.96c1.93-2.96,5.2-6.06,8.47-6.97C33.77.84,56.43-1.01,79.31.49c17.57,1.14,35.22,1.98,52.6,4.53,12.5,1.83,25.38,2.22,37.32,7.67,9.73,4.43,15.85,11.17,14.43,19.73-.8,4.78-3.08,9.47-5.45,13.8-2.29,4.17-5.63,7.75-8.3,11.73-.83,1.38-1.38,2.91-1.62,4.5-.88,4.74-1.42,9.54-2.44,14.24-.74,3.43-.58,7.8-5.88,8.02-.25,0-.55.38-.7.66-.14.26-.12.62-.23,1.3h4.27c-1.03,4.26-1.98,8.22-3.05,12.58m-52.79-47.7c-8.02-1.32-16.03-2.74-24.08-3.85-1.88-.26-3.9.58-5.85.9-4.23.7-8.46,1.4-12.7,2.05-2.61.4-5.24.83-7.87,1.05-2.57.21-5.2.5-7.74.18-6.25-.8-12.4-2.39-18.63.46-3.95,1.8-8.19,2.97-12.67,4.55,1.86,12.21,7.75,23.6,13.48,35.02,6.72,13.37,14.51,26.26,20.37,39.98,7.24,16.95,12.97,34.54,19.35,51.85,1.35,3.67,2.75,7.32,4.12,10.97,10.62-3.88,24.79,1.53,31.1,11.61,4.37,6.96,5.05,14.63,4.35,22.61-.8,9.12-5.95,15.5-12.64,20.76l4.49,13.84,1.65.14,1.1-6.98c1.03,1.27,2.62,2.4,2.46,3.15-.51,2.44-1.67,4.73-2.53,6.95,4.3.52,6.2-1.3,8.24-8.63-6.46-4.44-8.06-9.73-4.45-15.67,1.2-1.97,2.54-4.86,5.98-2.52-5.95,6.25-5.91,11.42.04,13.79,3.6-10.16,7.63-20.18,10.63-30.5,2.3-7.94,6.93-15.5,5.2-24.36-.11-.63.45-1.43.78-2.1,1.88-3.79,3.8-7.56,5.08-10.12-6.3-2-12.3-2.95-17.32-5.7-12.83-7-14.04-19.91-14.18-32.53-.11-10.58,7.95-16.52,15.78-21.46,3.23-2.03,8.58-2.4,12.41-1.4,5.52,1.44,10.52,4.83,15.57,7.3,1.22-5.74,2.79-12.36,3.92-19.06.26-1.52-.95-3.31-1.59-4.94-1.97-5.08-4.72-9.99-5.84-15.25-2.62-12.34,6.35-26.77,18.28-30.68,1.23-.4,2.28-1.4,3.26-2.04-7-2.2-13.7-3.57-19.74-6.4-6.95-3.38-14.93-3.94-22.28-1.55-6,1.86-11.36,1.92-17.53-1.42m-62.84-16.73l4.64-20.9c5.04,11.64,3,22.27-3.96,33.9,11.64-2.8,22.77.26,32.9-5.27,3.74.71,7.9,1.7,12.1,2.26,4.9.65,7.59-1.78,9.07-6.5,2.35-7.44,5.23-14.7,7.78-21.74,1.84,5.41,1.7,6.18-5.54,29.37,5.94,1.28,12.3,4.6,17.63,3.4,12.9-2.93,24.23-.4,35.48,5.34,6.8,3.47,11.45,2.99,14.53-1.76,3.12-4.69,5.88-9.61,8.26-14.72,4.44-9.84,1.74-16.1-8.34-20.6-1.04,15.38-5.85,26.13-12.75,28.4.1-.5.1-1.02.3-1.45.25-.6.6-1.18,1-1.7,4.77-6.42,6.37-13.83,6.48-21.61.08-4.9-1.52-9.01-7.08-9.79-5.66-.8-11.37-1.21-16.92-1.78l-5.52,25.26-1.57-.34c.71-6.33,1.54-12.66,2.1-19,.45-5.25-1.18-7.61-6.47-8-15.51-1.13-31.06-1.88-46.59-2.77-1.66,11.63-8.71,25.66-13.37,27.35,2.46-6.83,5.4-13.84,7.49-21.09,2.2-7.7.62-9.49-7.11-9.12-11.14.54-22.28,1.05-33.38,2.03-5.03.44-9.95,1.98-15.14,3.07,2.09,8.08,8.15,15.4,2.22,23.22-1.52-5.31-2.75-10.58-4.62-15.62-.76-2.04-3.37-5.27-4.32-5-2.77.77-6.52,2.52-7.37,4.81-1.59,4.47-2.19,9.23-1.75,13.96.43,4.52,2.7,8.86,4.06,13.3,2.22,7.3,5.25,8.83,12.89,6.92,5.1-1.27,10.36-1.98,15.5-3.17,1.3-.3,2.86-1.2,3.52-2.3,1.44-2.4,2.37-5.08,3.85-8.36m53.47,196.25c1.6.14,3.2.4,4.77.3.28-.03.82-1.76.58-2.49-1.02-3.06-6.6-4.55-10.56-2.39,1.65,1.52,3.13,2.88,5.21,4.58m-21.35-29.78c.13,3.61,2.33,5.4,5.62,5.55.74.03,2.45-2.87,2.22-3.14-1.92-2.27-3.85-5.13-7.84-2.41m7.78,21.83c4.92.1,3.74-3.97,4.35-6.65.16-.7-1.07-1.73-1.66-2.61-.85.61-2.26,1.1-2.44,1.87-.51,2.19-.52,4.5-.25,7.39m38.21-59.29l-4.36,4.45,1.22,1.42c1.68-.55,3.47-.9,5-1.71.88-.47,1.35-1.7,2-2.6-1.2-.71-2.5-1.24-3.86-1.56m-25.84,48.93l1.3,7.18,1.91-.46c.39-2.87,2.46-6.23-3.21-6.72m19.77-61.2c-1.07,1.86-2.18,3.71-3.1,5.64-.06.11,1.37.93,2.1,1.42.79-2,1.58-4,2.3-6.01.07-.18-.33-.52-1.3-1.05m-22.76,84.03l-2.73,1.69,3.62,4.5c.4-1.1,1.09-2.19,1.1-3.28,0-.84-.87-1.67-2-2.91m41.17-97.27c1.24.45,2.46,1,3.74,1.26.2.04,1.05-1.75.93-1.85-1.95-1.55-4-2.97-6.04-4.4l-.9,1.1c.61,1.08,1.22,2.17,2.27,3.89h0Z"/><path class="cls-6" d="m107.85,51.67c5.8,3.22,11.15,3.16,17.15,1.3,7.35-2.39,15.33-1.83,22.28,1.55,6.03,2.83,12.75,4.2,19.74,6.4-.98.63-2.03,1.63-3.26,2.04-11.93,3.9-20.9,18.34-18.28,30.68,1.12,5.26,3.87,10.17,5.84,15.25.64,1.63,1.85,3.42,1.6,4.94-1.14,6.7-2.71,13.32-3.93,19.05-5.05-2.46-10.05-5.85-15.57-7.3-3.83-1-9.18-.62-12.4,1.41-7.84,4.94-15.9,10.88-15.79,21.46.14,12.62,1.35,25.52,14.18,32.54,5.02,2.74,11.02,3.69,17.32,5.7-1.29,2.55-3.2,6.32-5.08,10.1-.33.68-.9,1.48-.77,2.11,1.72,8.86-2.9,16.42-5.21,24.36-3,10.32-7.04,20.34-10.63,30.5-5.95-2.37-6-7.54-.04-13.79-3.44-2.34-4.79.55-5.98,2.52-3.6,5.94-2.01,11.23,4.45,15.67-2.03,7.33-3.94,9.15-8.24,8.63.86-2.22,2.02-4.51,2.53-6.95.16-.75-1.43-1.88-2.47-3.15l-1.1,6.98-1.64-.14-4.5-13.84c6.7-5.25,11.85-11.64,12.65-20.76.7-7.98.02-15.65-4.34-22.61-6.32-10.08-20.49-15.5-31.11-11.61-1.37-3.65-2.77-7.3-4.12-10.97-6.39-17.31-12.11-34.9-19.35-51.85-5.86-13.72-13.65-26.6-20.37-39.98-5.73-11.41-11.62-22.8-13.48-35.02,4.48-1.58,8.72-2.74,12.67-4.55,6.24-2.85,12.38-1.25,18.63-.46,2.53.32,5.17.03,7.74-.18,2.63-.22,5.26-.65,7.88-1.05,4.23-.65,8.46-1.36,12.7-2.05,1.95-.32,3.96-1.16,5.84-.9,8.05,1.1,16.06,2.53,24.47,3.97m-28.8,97.45c-.38-.2-.77-.4-1.2-1.17-1.98.12-3.96.24-6.57.78-2.8,3.71-.6,6.56,2.23,8.34,3.15,1.97,5.69-.15,7.35-2.97,1.36-2.32,1.07-2.8-1.93-4.34,0,0,.06,0,.12-.64m-26.21-49.92c3.22,5.93,6.72,12.16,13.85,13.38,9.66,1.65,19.2.58,27.72-5.2,9.75-6.62,13.55-15.1,11.08-25.6-1.82-7.78-6-14.32-12.75-18.39-6.97-4.19-14.56-7.56-23.04-3.88-3.66,1.57-7.27,3.26-10.82,5.07-5.88,3.03-10.05,7.8-9.72,14.5.32,6.52,2.16,12.96,3.68,20.12m80.1,7.74c-.14,4.4-.86,8.92-.12,13.18.29,1.66,3.87,2.76,5.95,4.1l1.08-1.6c-1.17-1.04-2.8-1.88-3.4-3.19-.79-1.68-.76-3.74-1.08-5.64,1.88.34,4.19.13,5.53,1.16,1.4,1.07,1.86,3.35,2.76,5.17,1.75-5.22-1.5-9.52-8.17-10.94l.88-1.1c-1.05-.62-2.22-1.01-3.43-1.14m-33.44,17.45c2.78-.13,5.56-.32,8.34-.37,3.48-.08,5.18-1.6,5.22-4.12-3.37,0-5.98.16-8.57-.04-4.76-.38-8.54.8-10.54,5.57-1.6,3.85-2.08,7.54.68,11.59,1.56-4.58,2.85-8.38,4.87-12.63m-18.65,65.37c5.4-5.53,8.47.42,12.29,3l.72-4.93,1.25-.18,1.56,4.74,1.62-.18c-.19-2.1.27-4.67-.79-6.14-.78-1.08-3.54-.82-5.44-1-1.34-.13-2.78.29-4.05-.03-3.99-1-7.2.19-9.77,3.19-.47.55-.24,1.7-.34,2.58,1.04-.17,2.04-.52,2.95-1.05m37.34-109.89l.96,11.4c1.28-1.01,4-2.1,4.52-3.83.7-2.4.65-5.94-.7-7.81-2.35-3.25-4.38-5.9-.22-10.54-6.24,2.5-6.79,5.83-4.56,10.78m-27.84,93.65c3.26-8.96,3.51-14.88.56-17.72-.22.87-.2,2.09-.62,2.28-4.5,1.98-4.12,5.2-2.8,9.04.44,1.28-.54,3.03-.17,4.37.28,1.03,1.67,1.76,3.03,2.03m34.92-112.13c.14,6.57,6.6,7.1,10.26,10.08,1.8,1.46,3.92-1.04,2.72-4.22-4.55,3.46-2.51-.95-2.96-2.07-10.64.88-3.53-6.78-5.2-12.07-1.71,2.7-3.32,5.46-4.82,8.28m-10.42,143.61c.57.52,1.47,1.58,1.67,1.47,2.7-1.6,2.57-8.16-.1-10-1.87-1.29-3.67-2.7-5.61-3.88-.89-.54-2.04-.63-3.07-.92-.16,1.03-.83,2.44-.4,3.04,1.38,1.9,3.27,3.4,4.77,5.2,1.07,1.3,1.84,2.84,2.74,5.1m-46.16-74.5l-7.08-6.94c-1.39,4.02-.35,6.6,3.17,8.87,2.54,1.63,4.63,3.94,7.15,6.15,2.76-2.27,2.33-4.83-3.24-8.09m-32.32-60.43l13.7-13.42c-2-.5-2.89-1-3.7-.88-2.68.41-10.74,11.12-10,14.3m66.44-10.96l-3.74-.7c.6,1.2.96,3.14,1.83,3.4,1.61.46,4.52.57,5.07-.31.86-1.4.23-3.72.23-5.65h-1.73c-.31,1.14-.62,2.28-1.66,3.26m-65.8,31.08c1.69.19,3.38.38,5.07.53.06,0,.17-.53.3-.95l-3.8-2.04,3.3-2.25c-1.46-1.17-3.63-1.71-3.88-1.24-.82,1.56-.94,3.48-1,5.95m-11.89-25.96l5.67-1.82-2.09-4.56c-1.83,2.65-2.88,4.17-3.58,6.38Z"/><path class="cls-4" d="m44.46,35.18c-1.3,2.92-2.24,5.6-3.68,8-.66,1.1-2.22,2-3.53,2.3-5.13,1.19-10.38,1.9-15.5,3.17-7.63,1.91-10.66.38-12.88-6.91-1.36-4.45-3.63-8.79-4.06-13.3-.43-4.61.16-9.65,1.75-13.97.85-2.3,4.6-4.04,7.37-4.81.95-.27,3.56,2.96,4.32,5,1.87,5.04,3.1,10.3,4.62,15.62,5.93-7.82-.13-15.14-2.22-23.22,5.19-1.09,10.11-2.63,15.14-3.07,11.1-.98,22.24-1.5,33.38-2.03,7.73-.37,9.32,1.42,7.1,9.12-2.08,7.25-5.02,14.26-7.48,21.09,4.66-1.7,11.71-15.72,13.37-27.35,15.53.9,31.08,1.64,46.6,2.77,5.28.39,6.91,2.75,6.45,8-.55,6.34-1.38,12.67-2.09,19l1.57.34,5.52-25.26c5.55.57,11.26.99,16.92,1.78,5.56.78,7.16,4.88,7.08,9.79-.11,7.78-1.7,15.19-6.49,21.6-.4.53-.74,1.1-1,1.7-.18.44-.2.96-.3,1.46,6.9-2.27,11.72-13.02,12.76-28.4,10.08,4.5,12.78,10.76,8.34,20.6-2.3,5.1-5.2,10-8.26,14.72-3.08,4.75-7.74,5.23-14.53,1.76-11.25-5.74-22.58-8.27-35.48-5.34-5.33,1.2-11.7-2.12-17.63-3.4,7.24-23.19,7.38-23.96,5.54-29.37-2.55,7.03-5.43,14.3-7.78,21.74-1.48,4.72-4.18,7.15-9.07,6.5-4.2-.55-8.36-1.55-12.1-2.26-10.13,5.53-21.26,2.47-32.9,5.27,6.96-11.63,9-22.26,3.96-33.9-1.56,7.1-3.16,14.18-4.8,21.26h-.01Z"/><path class="cls-13" d="m97.8,230.9c-1.66-1.44-3.3-2.9-4.91-4.4,3.96-2.17,9.54-.68,10.56,2.38.24.73-.3,2.46-.58,2.48-1.57.12-3.17-.15-5.07-.46h0Z"/><path class="cls-12" d="m76.87,200.9c3.87-2.33,5.8.53,7.72,2.8.23.27-1.48,3.17-2.22,3.14-3.29-.14-5.49-1.94-5.5-5.94Z"/><path class="cls-13" d="m84.29,222.8c-.03-2.57-.02-4.88.49-7.07.18-.77,1.6-1.26,2.44-1.87.6.88,1.82,1.9,1.66,2.61-.6,2.68.57,6.75-4.59,6.33h0Zm38.83-59.04c1.41.5,2.45,1.07,3.48,1.63-.65.9-1.12,2.13-2,2.6-1.53.82-3.32,1.16-5,1.7l-1.22-1.41c1.51-1.58,3.09-3.09,4.74-4.52Z"/><path class="cls-3" d="m97.11,212.41c5.46.84,3.39,4.2,3,7.07l-1.9.46c-.44-2.4-.88-4.79-1.1-7.53Z"/><path class="cls-13" d="m117.06,151.69c.58.4.98.74.92.92-.73,2.02-1.52,4.01-2.3,6.01-.74-.49-2.17-1.3-2.11-1.42.93-1.98,2.1-3.83,3.5-5.51h0Z"/><path class="cls-1" d="m94.23,235.79c.8,1.04,1.66,1.87,1.66,2.7,0,1.1-.7,2.19-1.1,3.28l-3.61-4.5c.9-.56,1.82-1.12,3.05-1.48Z"/><path class="cls-2" d="m134.85,138c-.83-1.4-1.44-2.49-2.04-3.58l.89-1.1c2.03,1.44,4.09,2.86,6.04,4.4.12.1-.74,1.9-.93,1.86-1.28-.27-2.5-.81-3.97-1.58h0Z"/><path class="cls-14" d="m52.67,98.86c-1.35-6.82-3.19-13.26-3.5-19.78-.34-6.7,3.83-11.47,9.71-14.5,3.54-1.81,7.17-3.48,10.82-5.07,8.48-3.68,16.07-.3,23.04,3.88,6.76,4.07,10.93,10.61,12.75,18.39,2.47,10.5-1.33,18.98-11.08,25.6-8.51,5.78-18.06,6.85-27.72,5.2-7.13-1.22-10.63-7.45-14.02-13.72m24.09-15.36l4,.85c.22-1.23,1.06-2.96.54-3.58-1.18-1.44-3.02-2.35-4.6-3.47-.22,2.06-.2,4.14.06,6.2m13.9,8.67c1.1.36,2.6,1.34,3.24.95.85-.53,1.72-2.4,1.38-3.2-.65-1.55-2.13-2.75-3.27-4.1-.72,2.05-1.17,4.18-1.35,6.35m2.23-18.13c-.43-1.04-.58-2.57-1.35-3-1.32-.71-3.03-.75-4.57-1.07.27,1.63,0,3.95.96,4.7,1.02.8,3.2.11,4.96-.63m-29.58,17.8c1.82,2.16,3.95,3.03,5.3-.06.52-1.17-.43-4.25-1.3-4.51-2.82-.86-4.15,1.05-4,4.56m5.03-17.93l.5-4.4c-.9,0-2.19-.38-2.6.06-.94,1-1.44,2.42-2.13,3.66,1.22.4,2.44.8,4.23.68m7.28-10.08l-1.89,3.18c1.26.65,2.47,1.54,3.8,1.84.54.12,1.36-1.06,2.06-1.65-1.19-1.28-2.52-2.41-3.97-3.37Z"/><path class="cls-10" d="m133.31,106.78c1.25.33,2.17.81,3.08,1.3l-.88,1.1c6.66,1.42,9.92,5.72,8.17,10.94-.9-1.82-1.36-4.1-2.76-5.17-1.34-1.03-3.65-.82-5.53-1.16.32,1.9.3,3.96,1.08,5.64.6,1.31,2.23,2.15,3.4,3.2l-1.08,1.6c-2.08-1.35-5.66-2.45-5.95-4.11-.74-4.26-.02-8.77.47-13.34h0Z"/><path class="cls-5" d="m99.15,124.61c-1.63,4.08-3.13,8.22-4.5,12.4-2.76-4.04-2.29-7.73-.68-11.58,2-4.77,5.78-5.95,10.54-5.57,2.59.2,5.2.04,8.57.04-.04,2.52-1.74,4.04-5.22,4.12-2.78.05-5.56.24-8.7.6h-.01Z"/><path class="cls-8" d="m80.67,190.04c-1.06.44-1.9.6-2.75.77.1-.88-.13-2.03.34-2.58,2.57-3,5.78-4.2,9.77-3.19,1.27.32,2.71-.1,4.05.02,1.9.19,4.66-.07,5.44,1.01,1.06,1.47.6,4.04.8,6.14l-1.63.18-1.56-4.74-1.25.18-.72,4.93c-3.82-2.58-6.9-8.53-12.5-2.72h0Z"/><path class="cls-10" d="m118,79.53c-2.02-4.6-1.47-7.95,4.77-10.44-4.16,4.65-2.13,7.29.22,10.54,1.35,1.87,1.4,5.42.7,7.81-.52,1.74-3.24,2.82-4.52,3.83-.36-4.3-.66-7.85-1.17-11.74h0Z"/><path class="cls-16" d="m90.14,173.82c-1.13-.57-2.52-1.3-2.8-2.33-.37-1.34.6-3.09.17-4.37-1.32-3.83-1.7-7.06,2.8-9.04.43-.2.4-1.41.62-2.28,2.95,2.84,2.7,8.76-.8,18.02h.01Z"/><path class="cls-11" d="m125.37,61.04c1.37-2.45,2.66-4.54,4.73-7.93,1.68,5.29-5.43,12.95,5.21,12.07.45,1.12-1.6,5.53,2.96,2.07,1.2,3.18-.92,5.68-2.72,4.22-3.65-2.97-10.12-3.51-10.18-10.43h0Z"/><path class="cls-10" d="m114.87,204.59c-.73-1.66-1.65-3.23-2.74-4.68-1.5-1.8-3.39-3.3-4.76-5.2-.44-.6.23-2,.39-3.04,1.03.29,2.18.38,3.07.92,1.94,1.18,3.74,2.6,5.62,3.89,2.66,1.83,2.79,8.39.1,9.99-.2.11-1.1-.95-1.68-1.88h0Zm-45.81-73.99c5.22,3.16,5.65,5.72,2.89,8-2.52-2.22-4.61-4.53-7.15-6.16-3.52-2.26-4.56-4.85-3.17-8.87,2.24,2.2,4.66,4.56,7.43,7.03Zm-33.03-60.64c-.38-3.07,7.68-13.78,10.37-14.19.8-.12,1.7.38,3.69.88-4.57,4.56-9.25,8.99-14.06,13.3h0Z"/><path class="cls-11" d="m78.94,149.71c3,1.59,3.3,2.07,1.93,4.4-1.66,2.81-4.2,4.93-7.35,2.96-2.83-1.78-5.02-4.63-1.62-8.36,1.62,1.97,2.63,3.95,3.64,5.93l3.4-4.93Z"/><path class="cls-15" d="m78.95,149.74c-1.14,1.63-2.28,3.26-3.41,4.9-1.01-1.98-2.02-3.96-3.33-6.13,1.7-.32,3.67-.44,5.71.04.4.8.74,1,1.08,1.21,0,0-.06,0-.06-.02h.01Z"/><path class="cls-11" d="m103.19,59.19c.68-1.06.99-2.2,1.3-3.35h1.73c0,1.94.63,4.26-.23,5.66-.55.88-3.46.77-5.07.3-.87-.25-1.24-2.2-1.83-3.38,0,0,4.1.77,4.1.77Z"/><path class="cls-9" d="m36.85,89.84c.23-2.12.35-4.04,1.17-5.6.25-.47,2.42.07,3.88,1.24l-3.3,2.25,3.8,2.04c-.13.42-.24.95-.3.95-1.77-.12-3.53-.41-5.24-.88h0Zm-11.9-25.96c.88-1.86,1.93-3.38,3.76-6.03l2.09,4.56c-1.9.61-3.78,1.22-5.84,1.47h0Z"/><path class="cls-11" d="m79.03,149.44c-.37.12-.71-.08-1.09-.6.35-.12.74.08,1.09.6Z"/><path class="cls-15" d="m76.51,83.21c-.1-2.16.05-4.03.2-5.9,1.57,1.11,3.4,2.02,4.6,3.46.5.62-.33,2.35-.55,3.58-1.33-.29-2.67-.57-4.25-1.14h0Z"/><path class="cls-13" d="m90.45,91.84c.38-2.23.97-4.12,1.56-6.01,1.14,1.34,2.62,2.54,3.27,4.09.34.8-.53,2.67-1.38,3.2-.64.4-2.13-.59-3.45-1.29h0Z"/><path class="cls-3" d="m92.85,74.39c-1.71.39-3.9,1.08-4.92.28-.96-.75-.69-3.07-.96-4.7,1.54.32,3.25.36,4.57,1.08.77.42.92,1.95,1.31,3.34Z"/><path class="cls-15" d="m63.2,91.47c-.04-3.15,1.3-5.06,4.11-4.2.87.26,1.82,3.34,1.3,4.5-1.35,3.1-3.48,2.23-5.41-.3Z"/><path class="cls-3" d="m68.05,74.15c-1.5-.14-2.72-.53-3.94-.93.69-1.24,1.2-2.65,2.13-3.66.41-.44,1.7-.06,2.6-.06-.15,1.57-.41,3.12-.79,4.65Z"/><path class="cls-15" d="m75.98,63.86c1.27,1.03,2.47,2.14,3.6,3.33-.69.59-1.5,1.77-2.04,1.65-1.34-.3-2.55-1.19-3.8-1.84.62-1.13,1.37-2.19,2.24-3.14Z"/></svg>