<svg version="1.1" id="Layer_1" xmlns="http://www.w3.org/2000/svg" xmlns:xlink="http://www.w3.org/1999/xlink" x="0px" y="0px"
	 width="100%" viewBox="0 0 304 400" enable-background="new 0 0 304 400" xml:space="preserve">
<path fill="#000000" opacity="1.000000" stroke="none" 
	d="
M82.078064,86.912369 
	C90.994324,84.355194 99.761063,83.325851 108.547836,82.821770 
	C124.460861,81.908859 140.263840,80.951073 156.231430,84.325661 
	C166.018539,86.394066 176.470612,85.272346 186.619171,85.700096 
	C189.762115,85.832558 192.992661,85.958450 196.004822,86.758530 
	C208.143753,89.982857 220.984253,89.359268 232.835068,94.627808 
	C246.383316,100.650978 250.669052,110.025314 244.481293,123.446671 
	C241.751022,129.368652 238.501236,134.972321 234.063065,139.800766 
	C233.006973,140.949738 232.303360,142.151932 232.124268,143.730133 
	C230.205551,160.637085 224.788834,176.772629 221.026611,193.269485 
	C215.928375,215.624634 211.346985,238.093109 205.806961,260.356567 
	C200.418472,282.010986 194.494156,303.464142 186.804962,324.419952 
	C184.856552,329.730072 183.235886,335.160187 181.301468,340.475800 
	C180.223831,343.437103 178.881897,346.310150 177.530960,349.162292 
	C175.510239,353.428497 172.113434,356.130707 167.364212,356.018616 
	C162.441711,355.902466 160.179779,352.013153 158.843964,347.983978 
	C156.485260,340.869507 153.697540,333.935577 150.992401,326.956787 
	C147.506104,317.962769 144.478867,308.815552 139.781235,300.302582 
	C132.574188,287.242065 129.459518,272.563721 123.909286,258.837341 
	C117.980705,244.175262 112.834778,229.224762 107.409180,214.377380 
	C104.355042,206.019577 99.288063,198.374542 94.918587,190.524902 
	C85.977654,174.462830 78.144623,157.970001 74.221779,139.864548 
	C73.942696,138.576477 73.460632,137.397644 72.568085,136.298309 
	C66.723488,129.099686 64.027130,120.291069 62.975239,111.556549 
	C61.332539,97.916168 65.557709,89.305939 82.078064,86.912369 
M181.336975,324.363312 
	C185.755219,313.242889 189.564392,301.919952 192.844757,290.410126 
	C193.493759,288.132996 193.428162,286.595612 191.716492,284.622833 
	C188.744019,281.196808 189.745361,277.759033 194.160477,276.116211 
	C196.722809,275.162781 197.454529,273.487030 197.576691,271.273956 
	C197.714188,268.783142 195.601425,268.562714 193.843506,268.081848 
	C193.043396,267.862946 192.267288,267.542023 191.458267,267.372314 
	C178.533890,264.661316 171.323273,256.430389 169.007599,243.744751 
	C167.669388,236.413818 165.620361,228.651398 170.112656,221.904266 
	C177.107040,211.399139 186.103760,203.970734 200.022232,207.008743 
	C200.022232,207.008743 199.989655,206.990173 200.469574,207.463776 
	C203.953384,209.641769 207.437195,211.819763 211.122086,214.123474 
	C213.200195,210.442490 212.650955,206.411285 213.910431,202.900253 
	C215.834747,197.535934 214.933701,193.144852 212.087357,188.025314 
	C202.185654,170.215881 209.251526,151.603806 228.017227,144.268555 
	C228.457047,144.096649 228.804642,143.711380 228.329468,142.889664 
	C224.691437,143.738113 221.807495,141.340286 218.620697,140.066254 
	C207.357498,135.563446 196.116486,131.894745 183.936905,136.898987 
	C181.521286,137.891495 178.580139,137.830154 176.100586,136.639587 
	C157.715958,127.812195 138.909424,131.482513 120.146027,134.731339 
	C117.121803,135.254974 114.283134,135.358841 111.282402,134.745422 
	C105.595833,133.582962 99.866051,132.122528 94.214302,135.100006 
	C92.158951,136.182831 90.026161,137.189362 87.823494,137.908432 
	C81.535431,139.961197 81.241112,140.176926 83.348495,146.527588 
	C89.038719,163.675262 97.582787,179.524750 106.263657,195.255325 
	C111.351646,204.475250 115.989738,213.797806 119.181870,223.849319 
	C120.992653,229.551208 121.888512,235.965805 128.972977,238.368286 
	C128.013763,240.656525 126.068459,242.105362 127.192825,244.889404 
	C130.679260,253.522156 133.683151,262.348724 137.006226,271.049652 
	C137.528625,272.417480 137.911270,274.215576 139.858887,274.786499 
	C140.133759,269.192810 144.115860,266.086060 150.098511,266.793365 
	C152.081467,267.027832 153.885941,267.500641 155.883774,266.505585 
	C158.167175,265.368286 160.266708,266.361237 161.419250,268.449127 
	C162.698868,270.767151 162.864975,273.174194 160.346817,274.718536 
	C158.500763,274.651886 159.136978,272.639069 157.848785,272.348938 
	C156.999054,273.235962 157.822067,275.214142 155.879486,275.355042 
	C147.893478,269.473572 146.201889,269.313232 144.361694,274.213776 
	C155.342041,275.665680 165.099976,279.461212 170.818298,289.663086 
	C177.285950,301.201813 175.243393,317.938782 166.610931,327.909149 
	C161.872437,333.382050 161.800461,334.634094 166.107040,342.051056 
	C166.664902,340.486664 167.206451,338.642883 168.945435,339.176758 
	C172.824615,340.367676 170.454544,344.466003 172.249222,347.052704 
	C174.900986,344.177246 177.036636,341.862976 172.966217,338.357727 
	C169.900421,335.717590 169.441284,332.055634 170.147171,327.846832 
	C171.102097,322.153259 176.189941,321.032867 179.283722,317.540985 
	C181.177185,320.032562 181.180206,322.504913 180.429214,325.293671 
	C178.187500,326.068909 174.910492,325.053070 174.463257,328.900085 
	C174.162445,331.487518 174.331390,333.755768 177.256012,335.191162 
	C179.625839,332.003571 179.994751,328.367462 181.336975,324.363312 
M178.038208,131.567795 
	C179.851608,131.451416 181.745483,131.632507 183.464600,131.167557 
	C191.236038,129.065720 198.681976,129.503677 206.496109,131.816116 
	C212.112183,133.478088 217.196732,136.264984 222.774017,137.933990 
	C226.455826,139.035812 229.168289,138.287384 231.198380,135.635132 
	C235.553802,129.944839 239.396774,123.880898 241.409546,116.899445 
	C243.480988,109.714470 240.340881,103.921570 233.404968,102.247208 
	C231.476273,112.520218 229.158463,122.662064 219.825653,129.923950 
	C218.340393,126.522057 220.156815,125.149956 221.164185,123.555138 
	C225.200714,117.164719 226.930847,110.172310 226.692047,102.663475 
	C226.556168,98.391373 224.669189,95.625137 220.376709,94.172966 
	C216.407074,92.830009 212.440506,93.695053 208.519043,93.221626 
	C204.698318,92.760368 202.846542,94.300751 202.512970,97.924347 
	C201.977432,103.741951 199.538757,109.145355 199.024155,114.998360 
	C198.671402,119.010384 196.752579,120.497803 193.334183,120.514046 
	C197.452408,114.504768 196.161026,107.366585 197.456467,100.797241 
	C198.998611,92.976799 197.279022,91.225914 189.304764,89.861755 
	C186.862762,89.444008 184.343887,89.408966 181.856186,89.336365 
	C171.057434,89.021194 160.202637,89.777924 149.506470,87.561989 
	C146.765564,86.994148 145.721680,88.270775 145.209381,90.943153 
	C143.644821,99.104797 139.503860,106.148933 135.002136,112.984009 
	C134.158615,114.264755 133.329987,115.820663 131.034912,115.406067 
	C131.218979,112.068649 132.612061,109.411644 134.043091,106.845879 
	C136.670288,102.135468 138.283585,97.115768 139.297989,91.852783 
	C140.277313,86.771782 138.971634,84.961235 133.766098,85.113678 
	C123.133423,85.425056 112.487312,85.680527 101.885345,86.474594 
	C96.200920,86.900345 90.400551,87.585907 85.010559,90.171104 
	C86.258759,98.002563 93.073227,105.590698 85.626938,113.398361 
	C83.935585,112.582916 83.795807,111.348015 83.925133,110.214485 
	C84.480644,105.345718 82.755463,101.042877 80.768036,96.796593 
	C79.880562,94.900429 79.503845,92.297005 76.674614,92.432327 
	C74.083694,92.556236 71.721130,93.737305 70.431702,96.043427 
	C68.383583,99.706429 67.137909,103.598541 67.827919,107.963577 
	C68.692940,113.435753 70.818260,118.515953 72.442299,123.748055 
	C74.554153,130.551712 77.410080,132.023300 84.519211,130.447464 
	C89.695686,129.300018 94.553429,126.833054 100.019836,126.848717 
	C102.052284,126.854538 103.593452,125.453613 104.234329,123.738228 
	C106.927094,116.530792 111.523666,109.810585 110.032906,101.470764 
	C109.682610,99.511086 110.185043,97.569153 112.303612,96.021095 
	C118.877258,107.011154 114.722488,117.537689 111.333130,128.136429 
	C112.728455,128.460220 113.586716,128.943588 114.294678,128.779282 
	C120.696457,127.293617 127.208443,127.870995 133.671814,127.551056 
	C134.941101,127.488228 136.537567,127.095657 137.360733,126.249603 
	C139.919418,123.619751 142.575623,124.077042 145.528748,125.225723 
	C147.065491,125.823471 148.727295,126.136589 150.357086,126.451653 
	C156.928772,127.722054 159.952133,125.982414 162.061188,119.590897 
	C164.468933,112.294319 168.597351,105.621201 169.274902,96.820847 
	C172.103668,99.740776 171.565567,102.316673 171.488037,104.610054 
	C171.300171,110.167648 169.231964,115.316261 167.553207,120.535408 
	C165.626831,126.524368 165.904037,127.063118 171.716843,129.090012 
	C173.598877,129.746262 175.407944,130.611832 178.038208,131.567795 
M164.675461,313.206299 
	C165.613602,307.753998 161.487457,308.843567 157.773102,307.490662 
	C159.059799,311.572723 161.199203,312.922119 164.675461,313.206299 
M142.592102,286.959137 
	C144.116653,288.403412 145.647812,289.580963 147.365509,287.297089 
	C146.899826,285.216339 145.483994,284.215912 143.911972,283.779327 
	C141.022110,282.976807 141.201813,284.542664 142.592102,286.959137 
M151.141815,298.430359 
	C148.208206,298.314117 147.600510,299.559387 148.353012,304.482635 
	C151.249710,303.615814 150.789917,301.026398 151.141815,298.430359 
z"/>
<path fill="#000000" opacity="1.000000" stroke="none" 
	d="
M136.506165,139.912231 
	C154.344879,139.116302 168.732178,151.654510 170.096329,168.987350 
	C170.917480,179.420792 164.036255,185.537155 156.566696,190.767776 
	C149.162537,195.952576 140.565063,197.019485 131.681137,195.941818 
	C126.926659,195.365067 123.291016,192.803543 120.314018,189.292755 
	C112.723312,180.341080 110.413185,169.809647 111.888870,158.437088 
	C112.571632,153.175262 115.903496,149.253967 120.597099,146.899979 
	C125.643860,144.368866 130.915375,142.285904 136.506165,139.912231 
M142.449142,166.010254 
	C144.020035,162.426117 143.845428,162.130188 139.945755,161.848145 
	C139.498138,163.721237 140.429276,164.929718 142.449142,166.010254 
z"/>
<path fill="#000000" opacity="1.000000" stroke="none" 
	d="
M173.650848,201.180328 
	C176.837173,199.829422 177.444122,201.238174 176.491577,203.511993 
	C175.319229,206.310410 172.730545,207.115982 169.905960,207.012741 
	C161.795776,206.716248 161.001816,207.300934 159.460739,215.126419 
	C159.213974,216.379440 159.573700,217.846786 157.794205,218.914948 
	C154.449768,216.872864 154.807236,213.499649 155.490326,210.460800 
	C156.539902,205.791504 159.125183,202.296082 164.418655,201.739685 
	C167.379486,201.428482 170.391800,202.478394 173.650848,201.180328 
z"/>
<path fill="#000000" opacity="1.000000" stroke="none" 
	d="
M200.040100,207.016113 
	C193.600418,203.886292 193.349487,198.200409 193.990189,192.172363 
	C194.176926,190.415482 194.959778,188.966400 196.750519,188.400360 
	C198.430664,187.869278 199.410339,188.814178 200.486237,190.060699 
	C201.641953,191.399643 203.464310,192.161606 204.626801,193.496597 
	C206.783401,195.973206 209.630997,198.457642 206.990540,202.400360 
	C205.181473,201.530106 205.518112,199.652679 204.464783,198.621368 
	C203.023895,197.210617 201.381454,195.303116 199.424118,196.878525 
	C197.159058,198.701599 199.211288,200.300812 200.558289,201.770905 
	C202.019730,203.365891 204.841263,205.046524 200.299576,206.864456 
	C199.989655,206.990173 200.022232,207.008743 200.040100,207.016113 
z"/>
<path fill="#000000" opacity="1.000000" stroke="none" 
	d="
M182.843811,152.100723 
	C184.659012,151.708054 185.848969,152.389786 184.959534,153.755569 
	C182.900436,156.917389 184.742432,158.782684 186.459930,161.151932 
	C189.654480,165.558746 188.477524,171.095917 184.236359,173.143967 
	C183.191391,173.648575 182.082657,174.170883 180.985916,173.274399 
	C179.739441,172.255524 180.346909,171.112686 181.045776,170.206711 
	C183.141769,167.489594 182.177963,165.026505 180.831360,162.369507 
	C178.960999,158.679047 178.607269,155.063797 182.843811,152.100723 
z"/>
<path fill="#000000" opacity="1.000000" stroke="none" 
	d="
M201.030212,149.609955 
	C203.113586,151.250092 202.262009,152.640976 200.832184,153.746338 
	C199.535889,154.748489 197.814453,154.854156 196.733246,153.642548 
	C195.022430,151.725403 192.701538,150.817886 190.751770,149.344757 
	C185.976624,145.736969 187.226715,139.817444 193.253632,137.054977 
	C194.938110,138.157303 194.271545,139.605713 193.794266,141.004410 
	C193.133972,142.939346 192.421814,144.999054 194.651276,146.306396 
	C197.025620,147.698685 198.096893,145.375702 199.411774,144.157837 
	C202.342300,145.433289 197.493225,148.424072 201.030212,149.609955 
z"/>
<path fill="#000000" opacity="1.000000" stroke="none" 
	d="
M139.763412,240.168335 
	C135.448929,240.446899 133.642914,238.071243 132.874023,234.701630 
	C132.319824,232.272827 133.529007,230.590576 135.696762,229.475128 
	C138.682510,227.938812 141.227417,228.905136 143.417038,230.954727 
	C146.535461,233.873672 145.280930,237.266983 139.763412,240.168335 
z"/>
<path fill="#000000" opacity="1.000000" stroke="none" 
	d="
M149.872116,251.981262 
	C148.742233,246.170807 149.036530,241.239731 154.567673,237.783279 
	C156.209091,237.998917 157.280609,240.037537 156.864029,241.220886 
	C155.485031,245.138092 156.981934,249.384460 155.135956,253.154922 
	C154.369705,254.719971 154.182602,257.160675 151.826843,256.834717 
	C149.405090,256.499634 149.871567,254.196198 149.872116,251.981262 
z"/>
<path fill="#000000" opacity="1.000000" stroke="none" 
	d="
M182.079636,283.903564 
	C181.438141,286.070679 181.531784,288.261139 178.551926,289.474182 
	C178.306290,284.815063 175.467026,282.573120 172.007263,280.617310 
	C170.496948,279.763489 169.865814,277.703613 169.802231,275.810547 
	C169.742432,274.029694 170.459656,272.900482 172.488617,273.331512 
	C175.016693,273.868561 181.682404,280.923553 182.079636,283.903564 
z"/>
<path fill="#000000" opacity="1.000000" stroke="none" 
	d="
M107.245651,147.168152 
	C104.478783,149.250687 101.952148,151.054489 99.278511,152.963226 
	C96.686943,150.353851 98.088387,148.219666 100.079391,146.713150 
	C102.258888,145.064041 103.819038,143.182098 105.122032,140.784286 
	C106.684166,137.909561 109.137543,136.678528 112.788109,139.047409 
	C110.130447,141.361069 108.815231,144.129501 107.245651,147.168152 
z"/>
<path fill="#000000" opacity="1.000000" stroke="none" 
	d="
M133.907166,213.072769 
	C137.495758,216.108795 138.098175,218.998291 133.990921,223.007202 
	C132.832993,218.117172 129.723511,216.116241 126.343704,213.992950 
	C122.818954,211.778641 122.927475,208.108124 125.186256,203.558746 
	C127.452263,207.903046 129.056473,211.886520 133.907166,213.072769 
z"/>
<path fill="#000000" opacity="1.000000" stroke="none" 
	d="
M163.361984,139.786499 
	C165.795059,140.359695 167.207703,136.490356 169.470032,138.819595 
	C170.483902,139.863449 170.430374,141.307083 170.066284,142.583435 
	C169.213562,145.572510 166.813187,145.836563 164.513626,144.921371 
	C162.316635,144.047012 160.280045,142.510635 163.361984,139.786499 
z"/>
<path fill="#000000" opacity="1.000000" stroke="none" 
	d="
M98.901642,168.991150 
	C99.772568,166.492599 101.182259,165.224792 103.502083,166.034439 
	C105.415787,166.702332 104.773155,167.918274 104.339867,169.550949 
	C103.927742,171.103943 107.666412,173.838394 103.146751,174.259827 
	C99.991577,174.554047 99.139336,172.025391 98.901642,168.991150 
z"/>
<path fill="#000000" opacity="1.000000" stroke="none" 
	d="
M92.907654,146.578720 
	C90.899963,147.560181 88.845901,148.309036 87.850708,146.235413 
	C86.711220,143.861099 90.097237,143.053802 90.457191,140.896347 
	C90.599335,140.044403 92.229324,140.246033 92.985046,141.030365 
	C94.588211,142.694244 94.653572,144.503296 92.907654,146.578720 
z"/>
<path fill="#000000" opacity="1.000000" stroke="none" 
	d="
M149.242706,223.089783 
	C152.144226,226.936188 148.151443,227.641907 146.582870,228.840134 
	C145.214478,229.885452 143.840118,228.148148 143.882965,226.511261 
	C143.967209,223.291565 145.962540,222.361496 149.242706,223.089783 
z"/>
<path fill="#000000" opacity="1.000000" stroke="none" 
	d="
M177.406158,187.544052 
	C178.905396,186.304794 179.719971,183.834305 181.967972,185.185760 
	C183.254288,185.959076 183.377884,187.411880 182.517319,188.714600 
	C181.556137,190.169632 180.177887,190.512695 178.596390,189.835510 
	C177.777618,189.484924 177.345520,188.783493 177.406158,187.544052 
z"/>
<path fill="#000000" opacity="1.000000" stroke="none" 
	d="
M138.686371,250.871643 
	C136.197098,251.140869 135.463379,249.888016 135.318069,247.973679 
	C136.403778,246.411057 138.072327,246.447647 139.677139,246.187057 
	C141.467758,248.049164 140.601364,249.438843 138.686371,250.871643 
z"/>
</svg>